<?xml version="1.0" encoding="utf-8"?>
<!-- Generator: Adobe Illustrator 23.0.1, SVG Export Plug-In . SVG Version: 6.00 Build 0)  -->
<svg version="1.1" id="Layer_1" xmlns="http://www.w3.org/2000/svg" xmlns:xlink="http://www.w3.org/1999/xlink" x="0px" y="0px"
	 viewBox="0 0 1059.9 409.4" style="enable-background:new 0 0 1059.9 409.4;" xml:space="preserve">
<style type="text/css">
	.st0{fill:#C045B6;}
</style>
<g>
	<path class="st0" d="M105.6,7.5C121,2.8,137.1,0.6,153.2,0c7.5,0,15-0.1,22.5,0c18.6,0.7,37.4,3.6,54.9,10.2
		c9,3.6,17.9,8.1,25,14.8c8.4,0.1,16.8,1.5,24.8,4.4c17.2,6.2,31.8,19.1,40,35.5c5.4,10.5,8.1,22.4,7.9,34.2c0,10.1,0,20.1,0,30.2
		c0,23-11.8,45.7-30.7,58.8c-5.5,4-11.7,6.7-17.6,10c-8.1,4.3-16.5,8.6-25.8,9.7c-39.7-0.2-79.5,0-119.2-0.1
		c-20.2,0.1-40.4-0.1-60.6,0.1c-11.8-1.4-22-8.1-32.5-13.2c-10.3-4.9-19.5-12.1-26.5-21.2c-9.2-11.7-14.5-26.2-15.3-41
		c0.2-12.8,0.2-25.5,0-38.3c0.9-17.6,8.3-34.7,20.8-47.2C34.2,33,53.4,25.1,72.7,25.1C81.8,16.3,93.7,11.3,105.6,7.5 M67.9,80.6
		c-9.4,1.9-17.8,8.1-22.4,16.5c-3.9,6.8-5.1,15-3.6,22.7c1.9,9.8,8.4,18.6,17.3,23.1c8.1,4.4,18.2,5,26.8,1.8
		c7.6-2.7,14-8.3,17.9-15.4c4.2-7.6,5.3-17,2.7-25.4c-2.1-7-6.5-13.3-12.4-17.6C86.9,80.8,77,78.6,67.9,80.6 M248.4,80.5
		c-7.3,1.4-14.2,5.4-19.1,11.1c-6.4,7.4-9.4,17.8-7.6,27.5c1.4,8.2,6,15.7,12.6,20.7c7.6,6,17.8,8.3,27.3,6.2
		c7.1-1.5,13.7-5.4,18.4-10.9c6.4-7.3,9.4-17.7,7.6-27.3C286,97.4,279,88,269.5,83.4C263.1,80.1,255.5,79.1,248.4,80.5z"/>
	<path class="st0" d="M27.9,228c15.3-1.7,30.6-4.2,45.9-6.1c6.1-0.5,12.2-0.2,18.2-0.3c12.1,0.1,24.3-0.2,36.5,0.2
		c37.8,0,75.6,0,113.3,0c4.5,0,8.9-0.1,13.4,0.4c16.4,2,32.7,4.5,49.1,6.2c7,1.3,13.4,5.2,17.8,10.8c9.1,11.6,8.3,30.2-2.5,40.5
		c-5.4,5.7-13.2,8.4-20.9,8.8c-12.8,30.6-25.7,61.2-38.5,91.8c-1.9,6-4.8,11.7-9.2,16.3c-6.7,7.2-16.2,12.2-26.1,12.4
		c-37.1-0.3-74.2,0-111.3-0.2c-2.1,0-4.2,0.1-6.3,0.4c-14.7,0.1-28.8-9.2-34.9-22.5c-5.8-14.6-12.4-28.8-18.6-43.2
		c-8-18.4-16.1-36.7-24.1-55.1c-6.6-0.4-13.2-2.3-18.3-6.5c-6.3-4.9-10.4-12.5-11.1-20.4c0-2.5,0-4.9,0-7.4
		C1.3,240.3,13.8,228.4,27.9,228 M106.4,284c-2.7,1.1-4.9,3.9-4.8,6.9c0,17.7,0,35.4,0,53.2c0,4.6,5,8.4,9.5,7.2
		c3.7-0.7,6.3-4.3,6.2-8c0-17.4,0-34.8,0-52.3C117.1,285.8,111.2,281.7,106.4,284 M161.1,284c-3,1.3-5.1,4.4-4.8,7.7
		c0,17.2,0,34.4,0,51.6c-0.2,3.8,2.6,7.3,6.3,8c4.7,1.1,9.8-3.1,9.4-8c0-17.4,0-34.9,0-52.3C171.9,285.7,165.8,281.7,161.1,284
		 M215.8,284c-2.7,1.1-4.8,3.8-4.8,6.8c0,17.5,0,34.9,0,52.4c-0.3,3.7,2.6,7.3,6.2,7.9c4.8,1.2,9.8-3.1,9.5-8c0-17.2,0-34.3,0-51.5
		C227.2,286.3,220.9,281.4,215.8,284z"/>
</g>
<g>
	<path class="st0" d="M889.1,67.2c17.3,0,34.6,0,51.8,0c0.1,27.5,0,55,0,82.6c13.3-6.1,27.8-9.3,42.3-10.5
		c17.3,0.1,35.6,3,49.5,13.9c13.4,10.3,20.2,26.7,23.5,42.8c4.6,22.4,4.2,45.5,2.7,68.3c-1.5,11.9-3.6,23.9-8,35
		c-6.3,15-18.2,28.3-33.9,33.7c-11.8,5-24.7,6.4-37.3,7.3c-30.3,1.3-60.4-2.5-90.6-4.9C889.1,245.9,889,156.5,889.1,67.2
		 M940.6,190.3c0.1,34.2-0.1,68.4,0.1,102.6c7.2,1.2,14.6,1.1,21.9,1.4c6.8-0.1,13.8,0.1,20.4-1.9c9.9-2.4,18-10.4,20.7-20.2
		c5-16.6,4.6-34.3,3-51.5c-0.9-10.2-4.2-20.5-11.1-28.2c-5.3-4.9-12.6-7.1-19.7-7.2C964,185.4,952.2,187.5,940.6,190.3z"/>
	<path class="st0" d="M455.9,74.8c37.4,0,74.9-0.1,112.3,0.1c15.4,1.7,31.5,3.2,45,11.5c14.1,8.4,23.3,23.6,25.6,39.7
		c1.8,14.3,2.1,29.1-1.6,43.2c-3.4,13.8-13.5,25-25.4,32.2c13,5.7,24.7,15.9,29.1,29.8c5.5,17.7,5.8,37,1.3,55
		c-2.5,7.8-5.3,15.7-10.5,22.2c-7.5,9.3-17.5,16.7-28.7,20.9c-14.6,5.2-30.3,6.9-45.7,7c-33.8,0-67.5,0-101.3,0
		C455.9,249.1,455.9,162,455.9,74.8 M509.3,120.3c0,20.7,0,41.5,0,62.2c15.6,0,31.2,0,46.8,0c6.9-0.3,14.4-1.2,20.1-5.5
		c6.3-4.6,9.4-12.5,9.8-20c0.6-9.2,0.5-19.4-5.3-27.1c-5.4-7.1-14.8-9.5-23.3-9.5C541.3,120.3,525.3,120.3,509.3,120.3 M509.3,226.9
		c0,21.2,0.1,42.4-0.1,63.7c16-0.2,32,0,48-0.1c7.4-0.2,15.4-0.2,22-4.2c5.6-3.1,9.4-8.7,10.6-14.9c2.4-11,2.3-23.5-4.3-33
		c-6.8-9.1-18.8-11.3-29.5-11.5C540.5,226.8,524.9,226.7,509.3,226.9z"/>
	<path class="st0" d="M747.1,140.2c23.5-2.3,48.8-0.8,69.3,12.2c18.5,11.3,28.6,32.3,32.7,52.9c3.8,21.3,3.8,43.3,0.8,64.7
		c-3.2,17.3-9.3,35-21.9,47.8c-13.7,15.3-34.8,21-54.6,22.5c-17.5,0.9-35.7-0.3-52-7.2c-16.9-6.8-30.1-21.2-36.8-38
		c-4.7-10.7-6.7-22.3-8.2-33.8c-1.5-9.4-0.6-19-0.8-28.4c-0.4-10.6,1.6-21,3.6-31.4c3.8-17.4,12.3-34.7,26.8-45.6
		C717.7,146.8,732.4,141.8,747.1,140.2 M753.2,184.2c-8.7,1.8-16.6,7.9-19.8,16.3c-5.9,14.4-5.8,30.3-5.6,45.7
		c0.1,11.7,1.5,23.6,6.3,34.3c3.8,8.5,12.2,14.4,21.3,15.6c9.8,1.3,20.7,0.9,29.1-4.9c8.2-6.1,11.8-16.5,13.3-26.2
		c2.2-14.7,2.3-29.6,0.8-44.4c-1.1-9.7-3-20-9.5-27.7C780.3,183,765.5,181.6,753.2,184.2z"/>
</g>
</svg>
