<?xml version="1.0" encoding="utf-8"?>
<!-- Generator: Adobe Illustrator 23.0.1, SVG Export Plug-In . SVG Version: 6.00 Build 0)  -->
<svg version="1.1" id="Layer_1" xmlns="http://www.w3.org/2000/svg" xmlns:xlink="http://www.w3.org/1999/xlink" x="0px" y="0px"
	 viewBox="0 0 880.8 286.4" style="enable-background:new 0 0 880.8 286.4;" xml:space="preserve">
<style type="text/css">
	.st0{fill:#CF34BB;}
	.st1{fill:#FFFFFF;}
	.st2{display:none;fill:#CF34BB;}
	.st3{display:none;}
	
		.st4{display:inline;fill:#FFFFFF;stroke:#01C317;stroke-width:16;stroke-linecap:round;stroke-linejoin:round;stroke-miterlimit:10;}
	
		.st5{display:inline;fill:#FFFFFF;stroke:#01C317;stroke-width:12;stroke-linecap:round;stroke-linejoin:round;stroke-miterlimit:10;}
	
		.st6{display:inline;fill:#FFFFFF;stroke:#01C317;stroke-width:20;stroke-linecap:round;stroke-linejoin:round;stroke-miterlimit:10;}
	.st7{fill:#FFFFFF;stroke:#FFFFFF;stroke-width:20;stroke-linecap:round;stroke-linejoin:round;stroke-miterlimit:10;}
	.st8{fill:#FFFFFF;stroke:#CF34BB;stroke-width:12;stroke-linecap:round;stroke-linejoin:round;stroke-miterlimit:10;}
	
		.st9{display:inline;fill:#FFFFFF;stroke:#DA1FFF;stroke-width:16;stroke-linecap:round;stroke-linejoin:round;stroke-miterlimit:10;}
	
		.st10{display:inline;fill:#FFFFFF;stroke:#DA1FFF;stroke-width:13;stroke-linecap:round;stroke-linejoin:round;stroke-miterlimit:10;}
</style>
<path class="st0" d="M865.6,286.4H15.3c-8.4,0-15.3-6.8-15.3-15.3V15.3C0,6.8,6.8,0,15.3,0h850.3c8.4,0,15.3,6.8,15.3,15.3v255.9
	C880.8,279.5,874,286.4,865.6,286.4z"/>
<g>
	<path class="st1" d="M671.7,30.3c14.3,0,28.6,0,43,0c0.1,22.8,0,45.6,0,68.4c11-5.1,23-7.7,35-8.7c14.3,0.1,29.5,2.5,41,11.5
		c11.1,8.5,16.8,22.2,19.5,35.5c3.8,18.6,3.5,37.7,2.2,56.6c-1.2,9.9-3,19.8-6.7,29c-5.2,12.5-15.1,23.5-28.1,27.9
		c-9.8,4.1-20.4,5.3-30.9,6c-25.1,1.1-50.1-2.1-75.1-4.1C671.7,178.4,671.6,104.3,671.7,30.3 M714.4,132.3c0.1,28.3-0.1,56.7,0.1,85
		c6,1,12.1,0.9,18.2,1.2c5.7-0.1,11.5,0.1,16.9-1.6c8.2-2,14.9-8.6,17.2-16.7c4.2-13.8,3.8-28.5,2.5-42.6c-0.7-8.4-3.4-17-9.2-23.4
		c-4.4-4-10.5-5.9-16.3-5.9C733.8,128.3,724,130,714.4,132.3z"/>
	<path class="st1" d="M312.7,36.6c31,0,62.1-0.1,93.1,0.1c12.7,1.4,26.1,2.6,37.3,9.6c11.7,7,19.3,19.6,21.2,32.9
		c1.5,11.9,1.8,24.1-1.3,35.8c-2.8,11.4-11.2,20.7-21.1,26.7c10.8,4.7,20.5,13.2,24.1,24.7c4.5,14.7,4.8,30.7,1.1,45.5
		c-2,6.5-4.4,13-8.7,18.4c-6.2,7.7-14.5,13.9-23.8,17.3c-12.1,4.3-25.1,5.8-37.9,5.8c-28,0-56,0-84,0
		C312.6,181.1,312.7,108.8,312.7,36.6 M356.9,74.3c0,17.2,0,34.4,0,51.6c12.9,0,25.8,0,38.8,0c5.7-0.3,11.9-1,16.6-4.5
		c5.2-3.8,7.8-10.3,8.1-16.6c0.5-7.6,0.4-16.1-4.4-22.5c-4.5-5.9-12.3-7.8-19.3-7.9C383.4,74.3,370.2,74.3,356.9,74.3 M356.9,162.6
		c0,17.6,0.1,35.2-0.1,52.8c13.3-0.2,26.5,0,39.8-0.1c6.2-0.2,12.7-0.2,18.2-3.5c4.6-2.5,7.8-7.2,8.8-12.4c2-9.1,1.9-19.4-3.5-27.4
		c-5.6-7.6-15.6-9.3-24.5-9.5C382.8,162.5,369.8,162.5,356.9,162.6z"/>
	<path class="st1" d="M554,90.8c19.5-1.9,40.4-0.6,57.4,10.1c15.3,9.4,23.7,26.7,27.1,43.9c3.2,17.7,3.1,35.9,0.6,53.6
		c-2.6,14.4-7.7,29-18.1,39.6c-11.4,12.7-28.8,17.4-45.3,18.6c-14.5,0.7-29.5-0.3-43.1-6c-14-5.6-24.9-17.6-30.5-31.5
		c-3.9-8.9-5.6-18.5-6.8-28c-1.2-7.8-0.5-15.7-0.7-23.6c-0.3-8.8,1.3-17.4,3-26c3.2-14.4,10.2-28.7,22.2-37.8
		C529.6,96.2,541.8,92.1,554,90.8 M559,127.3c-7.2,1.5-13.7,6.6-16.4,13.5c-4.9,12-4.8,25.1-4.6,37.8c0.1,9.7,1.2,19.6,5.2,28.5
		c3.1,7,10.1,11.9,17.6,12.9c8.1,1.1,17.1,0.7,24.1-4.1c6.8-5.1,9.8-13.7,11.1-21.8c1.8-12.2,1.9-24.6,0.7-36.8
		c-0.9-8-2.5-16.6-7.9-22.9C581.5,126.2,569.2,125.1,559,127.3z"/>
	<path class="st1" d="M105.9,48.8c18.9-13.1,41.9-20.4,65-20.3c24.2,0,48.4,7.8,67.9,22.1c4.4-3.6,10.7-4.8,16-2.5
		c3.8,2.2,7.3,5.5,8.1,10c1.5,4.7-0.8,9.5-3.4,13.3c8.5,8.2,17.2,18.4,17.4,30.8c0.5,7.5-3.8,14.4-8.7,19.7
		c-5.8,7.1-14.3,11.1-22.4,14.9c-8,3.7-16.5,7.5-25.5,6.7c-33.1-0.5-66.3-0.9-99.4-1.3c-10.7,0.3-20.6-4.4-30.2-8.5
		c-10.5-5.2-21.8-12.5-25.2-24.4c-2.5-7.3-0.2-15.1,3.3-21.6c4.2-6.9,9.4-13.4,15.8-18.5c-2.1-3.5-4.2-7.5-3.5-11.8
		c0.8-6.9,7.4-13.1,14.5-12.5C99.4,44.6,102.8,46.6,105.9,48.8 M120.7,87.9C117,88.6,129.7,85.2,120.7,87.9"/>
	<path class="st2" d="M132.2,209.9c29.3,0,58.6,0,87.9,0c-16.9,5.4-34.8,7-52.5,6.5C155.6,215.8,143.6,213.8,132.2,209.9z"/>
	<path class="st0" d="M143.3,88.3c5.1-1.5,11,2,12,7.3c1.8,6.8-5.8,13.5-12.3,11c-4.9-1.5-7.8-7.3-6-12.1
		C137.9,91.5,140.4,89.2,143.3,88.3z"/>
	<path class="st0" d="M207.3,88.3c5.1-1.5,11,2,12,7.3c1.8,6.8-5.8,13.5-12.3,11c-4.9-1.5-7.8-7.3-6-12.1
		C201.9,91.5,204.4,89.2,207.3,88.3z"/>
	<path class="st2" d="M117,222.1c8.4-2.4,17.9,4.7,17.7,13.5c1,8.2-6.9,15.8-15.1,15.1c-8.3-0.1-15.2-8.6-13.6-16.8
		C107,228.2,111.5,223.3,117,222.1z"/>
</g>
<g id="basket" class="st3">
	<path class="st4" d="M940,311.8c0,0,14.5,81.5,26,91s128.5,7.5,138-1s27-90,27-90"/>
	<line class="st5" x1="1034.5" y1="345.3" x2="1034.5" y2="372.3"/>
	<path class="st6" d="M1147.5,315.3c0,0-165-11-226-1"/>
	<path class="st5" d="M1004.5,345.3c0,0-2,14,0,27"/>
	<path class="st5" d="M1065.6,372.3c0,0,2-14,0-27"/>
</g>
<g id="basket_1_">
	<path class="st7" d="M71.5,163.7c52.7-8.6,195.1,0.9,195.1,0.9l-14.9-0.9c0,0-14.4,70-22.6,77.3c-8.2,7.3-109.2,9.1-119.1,0.9
		s-22.4-78.6-22.4-78.6"/>
	<line class="st8" x1="182" y1="190.7" x2="182" y2="221.6"/>
	<line class="st8" x1="157.8" y1="190.7" x2="157.8" y2="221.6"/>
	<path class="st8" d="M132.8,190.7c0,0-1.7,16,0,30.8"/>
	<path class="st8" d="M206.3,221.6c0,0,1.7-16,0-30.8"/>
</g>
<g id="robot" class="st3">
	<path class="st9" d="M1103.5,248.1c0,0,10.8-19,29.4-29.4"/>
	<path class="st9" d="M978.3,241c0,0-11.8-18.7-34.8-22.7"/>
	<path class="st9" d="M953.5,305.3c0,0-14-78,81-78c105,0,84,78,84,78"/>
	<circle class="st10" cx="1001" cy="272.8" r="1.5"/>
	<circle class="st10" cx="1066" cy="272.8" r="1.5"/>
</g>
</svg>
