<?xml version="1.0" encoding="utf-8"?>
<!-- Generator: Adobe Illustrator 23.0.1, SVG Export Plug-In . SVG Version: 6.00 Build 0)  -->
<svg version="1.1" id="Layer_1" xmlns="http://www.w3.org/2000/svg" xmlns:xlink="http://www.w3.org/1999/xlink" x="0px" y="0px"
	 viewBox="0 0 702.93 221.74" style="enable-background:new 0 0 702.93 221.74;" xml:space="preserve">
<style type="text/css">
	.st0{fill:#FFFFFF;stroke:#01C317;stroke-width:16;stroke-linecap:round;stroke-linejoin:round;stroke-miterlimit:10;}
	.st1{fill:#FFFFFF;stroke:#01C317;stroke-width:12;stroke-linecap:round;stroke-linejoin:round;stroke-miterlimit:10;}
	.st2{fill:#FFFFFF;stroke:#DA1FFF;stroke-width:16;stroke-linecap:round;stroke-linejoin:round;stroke-miterlimit:10;}
	.st3{fill:#FFFFFF;stroke:#01C317;stroke-width:20;stroke-linecap:round;stroke-linejoin:round;stroke-miterlimit:10;}
	.st4{fill:#FFFFFF;stroke:#DA1FFF;stroke-width:13;stroke-linecap:round;stroke-linejoin:round;stroke-miterlimit:10;}
	.st5{fill:none;}
	.st6{fill:#DA1FFF;}
	.st7{font-family:'Comfortaa';}
	.st8{font-size:200px;}
</style>
<path class="st0" d="M28.5,112.29c0,0,14.5,81.5,26,91s128.5,7.5,138-1s27-90,27-90"/>
<line class="st1" x1="123" y1="145.79" x2="123" y2="172.79"/>
<path class="st0" d="M153,170.79"/>
<path class="st0" d="M153,143.79"/>
<path class="st2" d="M42,105.79c0,0-14-78,81-78c105,0,84,78,84,78"/>
<path class="st3" d="M236,115.79c0,0-165-11-226-1"/>
<path class="st2" d="M36,72.79"/>
<path class="st1" d="M93,145.79c0,0-2,14,0,27"/>
<path class="st1" d="M154.11,172.79c0,0,2-14,0-27"/>
<path class="st2" d="M192,48.55c0,0,10.76-19,29.38-29.38"/>
<path class="st2" d="M66.85,41.45c0,0-11.85-18.66-34.85-22.66"/>
<circle class="st4" cx="89.5" cy="73.29" r="1.5"/>
<circle class="st4" cx="154.5" cy="73.29" r="1.5"/>
<rect x="268.24" y="46.09" class="st5" width="431.7" height="240.66"/>
<text transform="matrix(1 0 0 1 268.2383 185.8838)" class="st6 st7 st8">Bob</text>
</svg>
